# This file uses centimeters as units for non-parametric coordinates.

mtllib star.mtl
g default
v 0.788956 0.217365 0.230066
v 0.221281 0.223041 0.230066
v 0.006802 0.792350 0.230066
v -0.215131 0.225486 0.230066
v -0.781741 0.226156 0.230066
v -0.352313 -0.188812 0.230066
v -0.486932 -0.698755 0.230066
v -0.000685 -0.447305 0.230066
v 0.483813 -0.704188 0.230066
v 0.353815 -0.192765 0.230066
v 0.003376 0.031466 -0.000000
v 0.003567 0.031283 0.453906
v 0.788956 0.217365 0.230066
v 0.221281 0.223041 0.230066
v 0.006802 0.792350 0.230066
v -0.215131 0.225486 0.230066
v -0.781741 0.226156 0.230066
v -0.352313 -0.188812 0.230066
v -0.486932 -0.698755 0.230066
v -0.000685 -0.447305 0.230066
v 0.483813 -0.704188 0.230066
v 0.353815 -0.192765 0.230066
v 0.003376 0.031466 -0.000000
v 0.003567 0.031283 0.453906
v 0.788956 0.217365 0.230066
v 0.221281 0.223041 0.230066
v 0.006802 0.792350 0.230066
v -0.215131 0.225486 0.230066
v -0.781741 0.226156 0.230066
v -0.352313 -0.188812 0.230066
v -0.486932 -0.698755 0.230066
v -0.000685 -0.447305 0.230066
v 0.483813 -0.704188 0.230066
v 0.353815 -0.192765 0.230066
v 0.003376 0.031466 -0.000000
v 0.003567 0.031283 0.453906
vt 0.375000 0.312500
vt 0.500000 0.688440
vt 0.400000 0.312500
vt 0.425000 0.312500
vt 0.450000 0.312500
vt 0.475000 0.312500
vt 0.500000 0.312500
vt 0.525000 0.312500
vt 0.550000 0.312500
vt 0.575000 0.312500
vt 0.600000 0.312500
vt 0.625000 0.312500
vt 0.626409 0.064409
vt 0.500000 0.156250
vt 0.656250 0.156250
vt 0.626409 0.248091
vt 0.548284 0.304853
vt 0.451716 0.304853
vt 0.373591 0.248091
vt 0.343750 0.156250
vt 0.373591 0.064409
vt 0.451716 0.007647
vt 0.548284 0.007647
vt 0.375000 0.312500
vt 0.500000 0.688440
vt 0.400000 0.312500
vt 0.425000 0.312500
vt 0.450000 0.312500
vt 0.475000 0.312500
vt 0.500000 0.312500
vt 0.525000 0.312500
vt 0.550000 0.312500
vt 0.575000 0.312500
vt 0.600000 0.312500
vt 0.625000 0.312500
vt 0.626409 0.064409
vt 0.500000 0.156250
vt 0.656250 0.156250
vt 0.626409 0.248091
vt 0.548284 0.304853
vt 0.451716 0.304853
vt 0.373591 0.248091
vt 0.343750 0.156250
vt 0.373591 0.064409
vt 0.451716 0.007647
vt 0.548284 0.007647
vt 0.375000 0.312500
vt 0.500000 0.688440
vt 0.400000 0.312500
vt 0.425000 0.312500
vt 0.450000 0.312500
vt 0.475000 0.312500
vt 0.500000 0.312500
vt 0.525000 0.312500
vt 0.550000 0.312500
vt 0.575000 0.312500
vt 0.600000 0.312500
vt 0.625000 0.312500
vt 0.626409 0.064409
vt 0.500000 0.156250
vt 0.656250 0.156250
vt 0.626409 0.248091
vt 0.548284 0.304853
vt 0.451716 0.304853
vt 0.373591 0.248091
vt 0.343750 0.156250
vt 0.373591 0.064409
vt 0.451716 0.007647
vt 0.548284 0.007647
vn 0.007649 0.764864 -0.644146
vn 0.007649 0.764864 -0.644146
vn 0.007649 0.764864 -0.644146
vn 0.605043 0.227941 -0.762867
vn 0.605043 0.227941 -0.762867
vn 0.605043 0.227941 -0.762867
vn -0.598525 0.234328 -0.766067
vn -0.598525 0.234328 -0.766067
vn -0.598525 0.234328 -0.766067
vn 0.000905 0.764875 -0.644178
vn 0.000905 0.764875 -0.644178
vn 0.000905 0.764875 -0.644178
vn -0.342865 -0.354812 -0.869800
vn -0.342865 -0.354812 -0.869800
vn -0.342865 -0.354812 -0.869800
vn -0.603873 0.159415 -0.780976
vn -0.603873 0.159415 -0.780976
vn -0.603873 0.159415 -0.780976
vn 0.219307 -0.424089 -0.878665
vn 0.219307 -0.424089 -0.878665
vn 0.219307 -0.424089 -0.878665
vn -0.223044 -0.420674 -0.879366
vn -0.223044 -0.420674 -0.879366
vn -0.223044 -0.420674 -0.879366
vn 0.609546 0.154939 -0.777462
vn 0.609546 0.154939 -0.777462
vn 0.609546 0.154939 -0.777462
vn 0.339708 -0.360423 -0.868731
vn 0.339708 -0.360423 -0.868731
vn 0.339708 -0.360423 -0.868731
vn 0.332868 -0.353167 0.874341
vn 0.332868 -0.353167 0.874341
vn 0.332868 -0.353167 0.874341
vn 0.599599 0.152410 0.785654
vn 0.599599 0.152410 0.785654
vn 0.599599 0.152410 0.785654
vn -0.218362 -0.411845 0.884704
vn -0.218362 -0.411845 0.884704
vn -0.218362 -0.411845 0.884704
vn 0.214783 -0.415340 0.883946
vn 0.214783 -0.415340 0.883946
vn 0.214783 -0.415340 0.883946
vn -0.593452 0.156663 0.789475
vn -0.593452 0.156663 0.789475
vn -0.593452 0.156663 0.789475
vn -0.335777 -0.347477 0.875508
vn -0.335777 -0.347477 0.875508
vn -0.335777 -0.347477 0.875508
vn 0.000894 0.755774 0.654832
vn 0.000894 0.755774 0.654832
vn 0.000894 0.755774 0.654832
vn -0.588544 0.230420 0.774934
vn -0.588544 0.230420 0.774934
vn -0.588544 0.230420 0.774934
vn 0.595501 0.224347 0.771393
vn 0.595501 0.224347 0.771393
vn 0.595501 0.224347 0.771393
vn 0.007557 0.755768 0.654796
vn 0.007557 0.755768 0.654796
vn 0.007557 0.755768 0.654796
vn 0.007649 0.764864 -0.644146
vn 0.007649 0.764864 -0.644146
vn 0.007649 0.764864 -0.644146
vn 0.605043 0.227941 -0.762867
vn 0.605043 0.227941 -0.762867
vn 0.605043 0.227941 -0.762867
vn -0.598525 0.234328 -0.766067
vn -0.598525 0.234328 -0.766067
vn -0.598525 0.234328 -0.766067
vn 0.000905 0.764875 -0.644178
vn 0.000905 0.764875 -0.644178
vn 0.000905 0.764875 -0.644178
vn -0.342865 -0.354812 -0.869800
vn -0.342865 -0.354812 -0.869800
vn -0.342865 -0.354812 -0.869800
vn -0.603873 0.159415 -0.780976
vn -0.603873 0.159415 -0.780976
vn -0.603873 0.159415 -0.780976
vn 0.219307 -0.424089 -0.878665
vn 0.219307 -0.424089 -0.878665
vn 0.219307 -0.424089 -0.878665
vn -0.223044 -0.420674 -0.879366
vn -0.223044 -0.420674 -0.879366
vn -0.223044 -0.420674 -0.879366
vn 0.609546 0.154939 -0.777462
vn 0.609546 0.154939 -0.777462
vn 0.609546 0.154939 -0.777462
vn 0.339708 -0.360423 -0.868731
vn 0.339708 -0.360423 -0.868731
vn 0.339708 -0.360423 -0.868731
vn 0.332868 -0.353167 0.874341
vn 0.332868 -0.353167 0.874341
vn 0.332868 -0.353167 0.874341
vn 0.599599 0.152410 0.785654
vn 0.599599 0.152410 0.785654
vn 0.599599 0.152410 0.785654
vn -0.218362 -0.411845 0.884704
vn -0.218362 -0.411845 0.884704
vn -0.218362 -0.411845 0.884704
vn 0.214783 -0.415340 0.883946
vn 0.214783 -0.415340 0.883946
vn 0.214783 -0.415340 0.883946
vn -0.593452 0.156663 0.789475
vn -0.593452 0.156663 0.789475
vn -0.593452 0.156663 0.789475
vn -0.335777 -0.347477 0.875508
vn -0.335777 -0.347477 0.875508
vn -0.335777 -0.347477 0.875508
vn 0.000894 0.755774 0.654832
vn 0.000894 0.755774 0.654832
vn 0.000894 0.755774 0.654832
vn -0.588544 0.230420 0.774934
vn -0.588544 0.230420 0.774934
vn -0.588544 0.230420 0.774934
vn 0.595501 0.224347 0.771393
vn 0.595501 0.224347 0.771393
vn 0.595501 0.224347 0.771393
vn 0.007557 0.755768 0.654796
vn 0.007557 0.755768 0.654796
vn 0.007557 0.755768 0.654796
vn 0.007649 0.764864 -0.644146
vn 0.007649 0.764864 -0.644146
vn 0.007649 0.764864 -0.644146
vn 0.605043 0.227941 -0.762867
vn 0.605043 0.227941 -0.762867
vn 0.605043 0.227941 -0.762867
vn -0.598525 0.234328 -0.766067
vn -0.598525 0.234328 -0.766067
vn -0.598525 0.234328 -0.766067
vn 0.000905 0.764875 -0.644178
vn 0.000905 0.764875 -0.644178
vn 0.000905 0.764875 -0.644178
vn -0.342865 -0.354812 -0.869800
vn -0.342865 -0.354812 -0.869800
vn -0.342865 -0.354812 -0.869800
vn -0.603873 0.159415 -0.780976
vn -0.603873 0.159415 -0.780976
vn -0.603873 0.159415 -0.780976
vn 0.219307 -0.424089 -0.878665
vn 0.219307 -0.424089 -0.878665
vn 0.219307 -0.424089 -0.878665
vn -0.223044 -0.420674 -0.879366
vn -0.223044 -0.420674 -0.879366
vn -0.223044 -0.420674 -0.879366
vn 0.609546 0.154939 -0.777462
vn 0.609546 0.154939 -0.777462
vn 0.609546 0.154939 -0.777462
vn 0.339708 -0.360423 -0.868731
vn 0.339708 -0.360423 -0.868731
vn 0.339708 -0.360423 -0.868731
vn 0.332868 -0.353167 0.874341
vn 0.332868 -0.353167 0.874341
vn 0.332868 -0.353167 0.874341
vn 0.599599 0.152410 0.785654
vn 0.599599 0.152410 0.785654
vn 0.599599 0.152410 0.785654
vn -0.218362 -0.411845 0.884704
vn -0.218362 -0.411845 0.884704
vn -0.218362 -0.411845 0.884704
vn 0.214783 -0.415340 0.883946
vn 0.214783 -0.415340 0.883946
vn 0.214783 -0.415340 0.883946
vn -0.593452 0.156663 0.789475
vn -0.593452 0.156663 0.789475
vn -0.593452 0.156663 0.789475
vn -0.335777 -0.347477 0.875508
vn -0.335777 -0.347477 0.875508
vn -0.335777 -0.347477 0.875508
vn 0.000894 0.755774 0.654832
vn 0.000894 0.755774 0.654832
vn 0.000894 0.755774 0.654832
vn -0.588544 0.230420 0.774934
vn -0.588544 0.230420 0.774934
vn -0.588544 0.230420 0.774934
vn 0.595501 0.224347 0.771393
vn 0.595501 0.224347 0.771393
vn 0.595501 0.224347 0.771393
vn 0.007557 0.755768 0.654796
vn 0.007557 0.755768 0.654796
vn 0.007557 0.755768 0.654796
s off
g estrellica:pCylinder1
usemtl initialShadingGroup
f 1/1/1 11/2/2 2/3/3
f 2/3/4 11/2/5 3/4/6
f 3/4/7 11/2/8 4/5/9
f 4/5/10 11/2/11 5/6/12
f 5/6/13 11/2/14 6/7/15
f 6/7/16 11/2/17 7/8/18
f 7/8/19 11/2/20 8/9/21
f 8/9/22 11/2/23 9/10/24
f 9/10/25 11/2/26 10/11/27
f 10/11/28 11/2/29 1/12/30
f 1/13/31 12/14/32 10/15/33
f 10/15/34 12/14/35 9/16/36
f 9/16/37 12/14/38 8/17/39
f 8/17/40 12/14/41 7/18/42
f 7/18/43 12/14/44 6/19/45
f 6/19/46 12/14/47 5/20/48
f 5/20/49 12/14/50 4/21/51
f 4/21/52 12/14/53 3/22/54
f 3/22/55 12/14/56 2/23/57
f 2/23/58 12/14/59 1/13/60
f 13/24/61 23/25/62 14/26/63
f 14/26/64 23/25/65 15/27/66
f 15/27/67 23/25/68 16/28/69
f 16/28/70 23/25/71 17/29/72
f 17/29/73 23/25/74 18/30/75
f 18/30/76 23/25/77 19/31/78
f 19/31/79 23/25/80 20/32/81
f 20/32/82 23/25/83 21/33/84
f 21/33/85 23/25/86 22/34/87
f 22/34/88 23/25/89 13/35/90
f 13/36/91 24/37/92 22/38/93
f 22/38/94 24/37/95 21/39/96
f 21/39/97 24/37/98 20/40/99
f 20/40/100 24/37/101 19/41/102
f 19/41/103 24/37/104 18/42/105
f 18/42/106 24/37/107 17/43/108
f 17/43/109 24/37/110 16/44/111
f 16/44/112 24/37/113 15/45/114
f 15/45/115 24/37/116 14/46/117
f 14/46/118 24/37/119 13/36/120
f 25/47/121 35/48/122 26/49/123
f 26/49/124 35/48/125 27/50/126
f 27/50/127 35/48/128 28/51/129
f 28/51/130 35/48/131 29/52/132
f 29/52/133 35/48/134 30/53/135
f 30/53/136 35/48/137 31/54/138
f 31/54/139 35/48/140 32/55/141
f 32/55/142 35/48/143 33/56/144
f 33/56/145 35/48/146 34/57/147
f 34/57/148 35/48/149 25/58/150
f 25/59/151 36/60/152 34/61/153
f 34/61/154 36/60/155 33/62/156
f 33/62/157 36/60/158 32/63/159
f 32/63/160 36/60/161 31/64/162
f 31/64/163 36/60/164 30/65/165
f 30/65/166 36/60/167 29/66/168
f 29/66/169 36/60/170 28/67/171
f 28/67/172 36/60/173 27/68/174
f 27/68/175 36/60/176 26/69/177
f 26/69/178 36/60/179 25/59/180
